<svg width="698" height="26" viewBox="0 0 698 26" fill="none" xmlns="http://www.w3.org/2000/svg">
<path d="M695 3L683 23M675 3L663 23M655 3L643 23M635 3L623 23M615 3L603 23M595 3L583 23M575 3L563 23M555 3L543 23M535 3L523 23M515 3L503 23M495 3L483 23M475 3L463 23M455 3L443 23M435 3L423 23M415 3L403 23M395 3L383 23M375 3L363 23M355 3L343 23M335 3L323 23M315 3L303 23M295 3L283 23M275 3L263 23M255 3L243 23M235 3L223 23M215 3L203 23M195 3L183 23M175 3L163 23M155 3L143 23M135 3L123 23M115 3L103 23M95 3L83 23M75 3L63 23M55 3L43 23M35 3L23 23M15 3L3 23" stroke="#282F42" stroke-width="3" stroke-linecap="square"/>
</svg>
