<svg width="24" height="24" viewBox="0 0 24 24" fill="none" xmlns="http://www.w3.org/2000/svg">
<path d="M15.7955 2.2045C15.3562 1.76517 14.6438 1.76517 14.2045 2.2045C13.7652 2.64384 13.7652 3.35616 14.2045 3.7955L16.034 5.625H5.25C4.62868 5.625 4.125 6.12868 4.125 6.75C4.125 7.37132 4.62868 7.875 5.25 7.875H16.034L14.2045 9.7045C13.7652 10.1438 13.7652 10.8562 14.2045 11.2955C14.6438 11.7348 15.3562 11.7348 15.7955 11.2955L19.5455 7.5455C19.9848 7.10616 19.9848 6.39384 19.5455 5.9545L15.7955 2.2045Z" fill="#67C7FE"/>
<path d="M8.2045 12.7045C8.64384 12.2652 9.35616 12.2652 9.7955 12.7045C10.2348 13.1438 10.2348 13.8562 9.7955 14.2955L7.96599 16.125H18.75C19.3713 16.125 19.875 16.6287 19.875 17.25C19.875 17.8713 19.3713 18.375 18.75 18.375H7.96599L9.7955 20.2045C10.2348 20.6438 10.2348 21.3562 9.7955 21.7955C9.35616 22.2348 8.64384 22.2348 8.2045 21.7955L4.45451 18.0455C4.01516 17.6062 4.01516 16.8938 4.45451 16.4545L8.2045 12.7045Z" fill="#67C7FE"/>
</svg>
