<svg width="24" height="24" viewBox="0 0 24 24" fill="none" xmlns="http://www.w3.org/2000/svg">
<path fill-rule="evenodd" clip-rule="evenodd" d="M3.03125 2.5L7.94599 4.36958L16.8265 13.2501C17.2329 12.8686 17.5129 12.5665 17.7193 12.3438C18.0086 12.0317 18.1535 11.8753 18.2994 11.8745C18.4457 11.8736 18.5929 12.029 18.8879 12.3405C19.0471 12.5086 19.2493 12.7221 19.5176 12.981L13.6256 18.788L12.5208 17.5558L13.9372 16.1395L5.09912 7.2731L3.03125 2.5ZM20.8594 2.54541C20.8594 2.54541 20.9869 2.54541 21.001 2.55958C20.6612 3.34554 20.3107 4.12796 19.9602 4.91039C19.6096 5.6929 19.2589 6.4758 18.919 7.26186L15.3923 10.7886L12.5312 7.92755L16.058 4.35834C16.4505 4.26414 17.8002 3.72177 18.969 3.25215C19.9088 2.87449 20.7316 2.54388 20.8452 2.53125L20.8594 2.54541ZM6.70598 12.7494C6.30949 12.334 5.80815 11.8089 5.6674 11.837C5.58242 11.8512 4.54848 12.9418 4.56264 13.0268L10.3838 18.848L11.5311 17.5732L10.1147 16.1569L11.4886 14.7405L8.67006 11.8795L7.16873 13.2109C7.08269 13.144 6.90794 12.9609 6.70598 12.7494ZM18.1255 15.25H18.253C18.4196 15.4434 18.9998 16.0118 19.6591 16.6576C20.7378 17.7142 22.0278 18.9779 22.063 19.145V19.5132C22.0205 19.754 20.3067 21.4536 20.0801 21.4961C19.9243 21.5244 19.7118 21.4395 19.5844 21.3686C19.4696 21.3041 18.6579 20.4699 17.8126 19.6013C16.9883 18.7542 16.1321 17.8744 15.8594 17.6436C16.1143 17.3462 17.9697 15.2783 18.1255 15.25ZM8.21778 17.6011L5.82415 15.25H5.80998C5.60599 15.4935 4.81193 16.2628 4.00877 17.041C3.08325 17.9377 2.14565 18.8461 2.08498 18.975C1.97167 19.2016 1.97167 19.4991 2.08498 19.7257C2.14164 19.839 3.74211 21.4111 3.85542 21.4536C3.92624 21.4678 4.13869 21.4961 4.19534 21.4961C4.40157 21.4692 5.73742 20.1027 6.83012 18.9849C7.46345 18.337 8.0151 17.7726 8.21778 17.6011Z" fill="#FFAC00"/>
</svg>
