<svg width="698" height="26" viewBox="0 0 698 26" fill="none" xmlns="http://www.w3.org/2000/svg">
<path d="M3 3L15 23M23 3L35 23M43 3L55 23M63 3L75 23M83 3L95 23M103 3L115 23M123 3L135 23M143 3L155 23M163 3L175 23M183 3L195 23M203 3L215 23M223 3L235 23M243 3L255 23M263 3L275 23M283 3L295 23M303 3L315 23M323 3L335 23M343 3L355 23M363 3L375 23M383 3L395 23M403 3L415 23M423 3L435 23M443 3L455 23M463 3L475 23M483 3L495 23M503 3L515 23M523 3L535 23M543 3L555 23M563 3L575 23M583 3L595 23M603 3L615 23M623 3L635 23M643 3L655 23M663 3L675 23M683 3L695 23" stroke="#282F42" stroke-width="3" stroke-linecap="square"/>
</svg>
