<svg width="22" height="22" viewBox="0 0 22 22" fill="none" xmlns="http://www.w3.org/2000/svg">
<path d="M10.9998 0.166504C13.9433 0.166504 14.3105 0.177337 15.4653 0.231504C16.6191 0.285671 17.4045 0.466587 18.0957 0.735254C18.8107 1.01042 19.413 1.38309 20.0153 1.98434C20.5662 2.52589 20.9925 3.18097 21.2644 3.904C21.532 4.59409 21.714 5.38059 21.7682 6.53434C21.8191 7.68917 21.8332 8.05642 21.8332 10.9998C21.8332 13.9433 21.8223 14.3105 21.7682 15.4653C21.714 16.6191 21.532 17.4045 21.2644 18.0957C20.9932 18.8191 20.5669 19.4743 20.0153 20.0153C19.4736 20.566 18.8186 20.9922 18.0957 21.2644C17.4056 21.532 16.6191 21.714 15.4653 21.7682C14.3105 21.8191 13.9433 21.8332 10.9998 21.8332C8.05642 21.8332 7.68917 21.8223 6.53434 21.7682C5.38059 21.714 4.59517 21.532 3.904 21.2644C3.18069 20.993 2.52549 20.5667 1.98434 20.0153C1.43336 19.4739 1.0071 18.8188 0.735254 18.0957C0.466587 17.4056 0.285671 16.6191 0.231504 15.4653C0.180587 14.3105 0.166504 13.9433 0.166504 10.9998C0.166504 8.05642 0.177337 7.68917 0.231504 6.53434C0.285671 5.3795 0.466587 4.59517 0.735254 3.904C1.00634 3.18053 1.43271 2.52527 1.98434 1.98434C2.52565 1.43317 3.1808 1.00688 3.904 0.735254C4.59517 0.466587 5.3795 0.285671 6.53434 0.231504C7.68917 0.180587 8.05642 0.166504 10.9998 0.166504ZM10.9998 5.58317C9.56325 5.58317 8.1855 6.15385 7.16967 7.16967C6.15385 8.1855 5.58317 9.56325 5.58317 10.9998C5.58317 12.4364 6.15385 13.8142 7.16967 14.83C8.1855 15.8458 9.56325 16.4165 10.9998 16.4165C12.4364 16.4165 13.8142 15.8458 14.83 14.83C15.8458 13.8142 16.4165 12.4364 16.4165 10.9998C16.4165 9.56325 15.8458 8.1855 14.83 7.16967C13.8142 6.15385 12.4364 5.58317 10.9998 5.58317ZM18.0415 5.31234C18.0415 4.95319 17.8988 4.60875 17.6449 4.3548C17.3909 4.10084 17.0465 3.95817 16.6873 3.95817C16.3282 3.95817 15.9838 4.10084 15.7298 4.3548C15.4758 4.60875 15.3332 4.95319 15.3332 5.31234C15.3332 5.67148 15.4758 6.01592 15.7298 6.26988C15.9838 6.52383 16.3282 6.6665 16.6873 6.6665C17.0465 6.6665 17.3909 6.52383 17.6449 6.26988C17.8988 6.01592 18.0415 5.67148 18.0415 5.31234ZM10.9998 7.74984C11.8618 7.74984 12.6884 8.09225 13.2979 8.70174C13.9074 9.31123 14.2498 10.1379 14.2498 10.9998C14.2498 11.8618 13.9074 12.6884 13.2979 13.2979C12.6884 13.9074 11.8618 14.2498 10.9998 14.2498C10.1379 14.2498 9.31123 13.9074 8.70174 13.2979C8.09225 12.6884 7.74984 11.8618 7.74984 10.9998C7.74984 10.1379 8.09225 9.31123 8.70174 8.70174C9.31123 8.09225 10.1379 7.74984 10.9998 7.74984Z" fill="#828DB0"/>
</svg>
