<svg width="20" height="16" viewBox="0 0 20 16" fill="none" xmlns="http://www.w3.org/2000/svg">
<path d="M16.5698 1.88799C15.3383 1.31008 14.0304 0.888897 12.6652 0.653809C12.4935 0.957464 12.3025 1.36886 12.1688 1.69209C10.7169 1.47659 9.27533 1.47659 7.84338 1.69209C7.70973 1.36886 7.5092 0.957464 7.34694 0.653809C5.97228 0.888897 4.6644 1.31008 3.44149 1.88799C0.968959 5.62971 0.30071 9.28328 0.634834 12.8879C2.27682 14.1123 3.86156 14.8567 5.41858 15.3465C5.80043 14.8175 6.14412 14.2494 6.44003 13.6519C5.87681 13.4364 5.34221 13.172 4.8267 12.8585C4.96036 12.7606 5.09401 12.6529 5.21811 12.5451C8.33023 14.0046 11.7011 14.0046 14.775 12.5451C14.9086 12.6529 15.0328 12.7606 15.1665 12.8585C14.6509 13.172 14.1164 13.4364 13.5531 13.6519C13.8491 14.2494 14.1927 14.8175 14.5746 15.3465C16.1306 14.8567 17.7249 14.1123 19.3583 12.8879C19.7688 8.71526 18.7082 5.09102 16.5698 1.88799ZM6.8696 10.6644C5.93409 10.6644 5.17036 9.79264 5.17036 8.72501C5.17036 7.65731 5.91499 6.78558 6.8696 6.78558C7.8147 6.78558 8.58796 7.65731 8.56886 8.72501C8.56886 9.79264 7.8147 10.6644 6.8696 10.6644ZM13.1427 10.6644C12.2071 10.6644 11.4424 9.79264 11.4424 8.72501C11.4424 7.65731 12.188 6.78558 13.1427 6.78558C14.0878 6.78558 14.861 7.65731 14.8419 8.72501C14.8419 9.79264 14.0973 10.6644 13.1427 10.6644Z" fill="#828DB0"/>
</svg>
