<svg width="22" height="22" viewBox="0 0 22 22" fill="none" xmlns="http://www.w3.org/2000/svg">
<path d="M11.0043 0.166504C5.31679 0.166504 0.651961 4.554 0.209961 10.1299L6.01663 12.5306C6.50846 12.1948 7.10213 11.9976 7.74238 11.9976C7.79979 11.9976 7.85504 12.0008 7.91246 12.003L10.4951 8.26334V8.21025C10.4951 5.95692 12.326 4.12609 14.5793 4.12609C16.8315 4.12609 18.6635 5.95909 18.6635 8.21242C18.6635 10.4658 16.8305 12.2977 14.5793 12.2977H14.485L10.805 14.9258C10.805 14.9724 10.8082 15.0212 10.8082 15.0699C10.8082 16.7621 9.44104 18.1358 7.74779 18.1358C6.27229 18.1358 5.02538 17.0763 4.74154 15.6733L0.583711 13.9519C1.87071 18.4987 6.04588 21.8332 11.0054 21.8332C16.9875 21.8332 21.8365 16.9831 21.8365 10.9998C21.8365 5.01767 16.9865 0.166504 11.0043 0.166504ZM5.66779 16.0558C5.90396 16.5454 6.31238 16.9571 6.85296 17.1835C8.02404 17.671 9.37496 17.1153 9.86138 15.9431C10.0997 15.3743 10.0997 14.7514 9.86571 14.1827C9.63279 13.6139 9.18863 13.1708 8.62313 12.9347C8.05979 12.6996 7.45854 12.7093 6.92771 12.9076L8.30246 13.4763C9.16588 13.8371 9.5743 14.8305 9.21246 15.6928C8.85496 16.5563 7.86154 16.9658 6.99813 16.6061L5.66779 16.0558ZM17.3028 8.207C17.3028 6.70659 16.0808 5.48567 14.5804 5.48567C13.0778 5.48567 11.859 6.70659 11.859 8.207C11.859 9.71067 13.0778 10.9294 14.5804 10.9294C16.0819 10.9294 17.3017 9.71067 17.3017 8.207H17.3028ZM14.5858 6.15734C15.7125 6.15734 16.6311 7.07275 16.6311 8.20267C16.6311 9.33259 15.7135 10.248 14.5858 10.248C13.4548 10.248 12.5405 9.33259 12.5405 8.20267C12.5405 7.07275 13.4559 6.15734 14.5858 6.15734Z" fill="#828DB0"/>
</svg>
