<svg width="22" height="28" viewBox="0 0 22 28" fill="none" xmlns="http://www.w3.org/2000/svg">
<path d="M6.32241 0.294253C6.09068 0.10817 5.81006 0.00525977 5.52055 0.000196238C5.23104 -0.00486729 4.94743 0.0881743 4.71016 0.266054C4.47289 0.443934 4.29408 0.697571 4.19921 0.990798C4.10434 1.28402 4.09827 1.60187 4.18186 1.89902C4.42216 2.75841 4.44918 3.67014 4.26022 4.54415C4.07189 5.41299 3.67362 6.21343 3.10539 6.86509C3.06752 6.90892 3.03217 6.95518 2.99953 7.00361C2.18015 8.20755 -2.44466 15.2558 1.70585 22.8626L1.74709 22.9348C2.75531 24.5601 4.13622 25.8804 5.75737 26.7692C7.35898 27.6482 9.14523 28.069 10.9431 27.9908C12.8548 28.0266 14.7426 27.5317 16.423 26.554C18.1327 25.5575 19.5725 24.1035 20.6024 22.3336C22.391 19.0916 22.2302 15.6198 21.4108 12.8421C20.6093 10.1188 19.1011 7.81115 17.8267 6.7973C17.6265 6.63838 17.3897 6.54077 17.1417 6.5149C16.8937 6.48904 16.6439 6.53589 16.4188 6.65045C16.1937 6.76502 16.002 6.94299 15.864 7.16534C15.7259 7.38769 15.6469 7.64606 15.6353 7.91283C15.5432 10.0216 15.1362 11.672 14.5437 12.9688C14.2385 9.4218 12.9943 6.78551 11.4861 4.82856C9.90925 2.78024 7.96117 1.43925 6.9177 0.720127C6.71598 0.585296 6.51793 0.444262 6.32379 0.2972L6.32241 0.294253Z" fill="#FFAC00"/>
</svg>
