<svg width="24" height="24" viewBox="0 0 24 24" fill="none" xmlns="http://www.w3.org/2000/svg">
<path d="M9.86028 4.33584C10.5338 2.26289 13.4665 2.26289 14.1401 4.33584L14.8627 6.56002C15.1639 7.48707 16.0278 8.11473 17.0025 8.11473H19.3412C21.5209 8.11473 22.4271 10.9039 20.6637 12.185L18.7717 13.5596C17.9832 14.1326 17.6532 15.1482 17.9544 16.0752L18.677 18.2994C19.3506 20.3724 16.9781 22.0961 15.2147 20.8149L13.3226 19.4403C12.5341 18.8673 11.4662 18.8673 10.6776 19.4403L8.78565 20.8149C7.0223 22.0961 4.64972 20.3724 5.32326 18.2994L6.04594 16.0752C6.34715 15.1482 6.01718 14.1326 5.22857 13.5596L3.33658 12.185C1.57323 10.9039 2.47947 8.11473 4.6591 8.11473H6.99773C7.97249 8.11473 8.83638 7.48707 9.13761 6.56002L9.86028 4.33584Z" fill="#E00F30"/>
</svg>
