<svg width="24" height="24" viewBox="0 0 24 24" fill="none" xmlns="http://www.w3.org/2000/svg">
<path d="M13.9688 2C14.5914 2.00002 15.1922 2.20428 15.6562 2.57324C16.1202 2.9422 16.4154 3.45006 16.4846 4H18.4688C18.8012 4 19.1306 4.05783 19.4377 4.1709C19.7448 4.28397 20.0234 4.45028 20.2584 4.65918C20.4934 4.86808 20.6805 5.11574 20.8077 5.38867C20.9349 5.66165 21 5.95453 21 6.25V19.75C21 20.0455 20.9349 20.3383 20.8077 20.6113C20.6805 20.8843 20.4934 21.1319 20.2584 21.3408C20.0234 21.5497 19.7448 21.716 19.4377 21.8291C19.1306 21.9422 18.8012 22 18.4688 22H5.53125C4.85992 22 4.21628 21.7628 3.74158 21.3408C3.26688 20.9189 3 20.3467 3 19.75V6.25C3 5.65326 3.26688 5.08114 3.74158 4.65918C4.21628 4.23722 4.85992 4 5.53125 4H7.51538C7.58455 3.45006 7.87979 2.9422 8.34375 2.57324C8.80782 2.20428 9.40863 2.00002 10.0312 2H13.9688ZM17.5657 9.39746C17.1916 9.15065 16.6625 9.2203 16.3846 9.55273L11.4386 15.4717C11.3261 15.6062 11.0995 15.6062 10.9871 15.4717L8.74036 12.7832C8.46248 12.4507 7.9334 12.3819 7.55933 12.6289C7.18551 12.8758 7.1072 13.3453 7.38464 13.6777L9.63245 16.3662C10.4196 17.3081 12.006 17.3081 12.7932 16.3662L17.7404 10.4473C18.018 10.1148 17.9397 9.64441 17.5657 9.39746ZM10.0312 3.5C9.80747 3.5 9.59293 3.57907 9.43469 3.71973C9.27646 3.86038 9.1875 4.05109 9.1875 4.25C9.1875 4.44891 9.27646 4.63962 9.43469 4.78027C9.59293 4.92093 9.80747 5 10.0312 5H13.9688C14.1925 5 14.4071 4.92093 14.5653 4.78027C14.7235 4.63962 14.8125 4.44891 14.8125 4.25C14.8125 4.05109 14.7235 3.86038 14.5653 3.71973C14.4071 3.57907 14.1925 3.5 13.9688 3.5H10.0312Z" fill="#C9E75D"/>
</svg>
