<svg width="20" height="20" viewBox="0 0 20 20" fill="none" xmlns="http://www.w3.org/2000/svg">
<path d="M10.004 0C4.75404 0 0.448039 4.05 0.0400391 9.197L5.40004 11.413C5.85404 11.103 6.40204 10.921 6.99304 10.921C7.04604 10.921 7.09704 10.924 7.15004 10.926L9.53404 7.474V7.425C9.53404 5.345 11.224 3.655 13.304 3.655C15.383 3.655 17.074 5.347 17.074 7.427C17.074 9.507 15.382 11.198 13.304 11.198H13.217L9.82004 13.624C9.82004 13.667 9.82304 13.712 9.82304 13.757C9.82304 15.319 8.56104 16.587 6.99804 16.587C5.63604 16.587 4.48504 15.609 4.22304 14.314L0.385039 12.725C1.57304 16.922 5.42704 20 10.005 20C15.527 20 20.003 15.523 20.003 10C20.003 4.478 15.526 0 10.004 0ZM5.07804 14.667C5.29604 15.119 5.67304 15.499 6.17204 15.708C7.25304 16.158 8.50004 15.645 8.94904 14.563C9.16904 14.038 9.16904 13.463 8.95304 12.938C8.73804 12.413 8.32804 12.004 7.80604 11.786C7.28604 11.569 6.73104 11.578 6.24104 11.761L7.51004 12.286C8.30704 12.619 8.68404 13.536 8.35004 14.332C8.02004 15.129 7.10304 15.507 6.30604 15.175L5.07804 14.667ZM15.818 7.422C15.818 6.037 14.69 4.91 13.305 4.91C11.918 4.91 10.793 6.037 10.793 7.422C10.793 8.81 11.918 9.935 13.305 9.935C14.691 9.935 15.817 8.81 15.817 7.422H15.818ZM13.31 5.53C14.35 5.53 15.198 6.375 15.198 7.418C15.198 8.461 14.351 9.306 13.31 9.306C12.266 9.306 11.422 8.461 11.422 7.418C11.422 6.375 12.267 5.53 13.31 5.53Z" fill="black"/>
</svg>
