<svg width="22" height="22" viewBox="0 0 22 22" fill="none" xmlns="http://www.w3.org/2000/svg">
<path d="M11.0011 21.8332C5.01797 21.8332 0.167725 16.9829 0.167725 10.9998C0.167725 5.01675 5.01797 0.166504 11.0011 0.166504C16.9841 0.166504 21.8344 5.01675 21.8344 10.9998C21.8344 16.9829 16.9841 21.8332 11.0011 21.8332ZM7.63205 12.2682L7.64576 12.2595C8.2738 14.3329 8.58781 15.3697 8.58781 15.3697C8.70944 15.7061 8.87666 15.7661 9.07957 15.7387C9.28237 15.7111 9.39006 15.6014 9.52244 15.4737C9.52244 15.4737 9.95176 15.0593 10.8104 14.2307L13.5739 16.2755C14.0774 16.5537 14.441 16.4101 14.566 15.8073L16.362 7.33428C16.5602 6.54563 16.2125 6.22931 15.6009 6.47967L5.0568 10.5525C4.33745 10.8417 4.34093 11.2441 4.92583 11.4235L7.63205 12.2682Z" fill="#828DB0"/>
</svg>
